# xmcd
#
# Track frame offsets:
#	150
#	11288
#	21657
#	34203
#	48774
#	65967
#	83377
#	102330
#	110235
#	120108
#	130476
#	141131
#	151344
#	162455
#	173925
#	186730
#	200441
#	213528
#
# Disc length: 2995 seconds
#
# Revision: 3
# Processed by: cddbd v1.4PL0 Copyright (c) Steve Scherf et al.
# Submitted via: dBpowerAMP V4.0
#
DISCID=060bb112
DTITLE=Tito Puente - The Complete RCA Recordings - Volume 1 - Disc 4 
DYEAR=1958
DGENRE=Latin
TTITLE0=Camellia
TTITLE1=Happy Land of Hunza
TTITLE2=Mambo Gozon
TTITLE3=Llego Mijan
TTITLE4=Hong Kong Mambo
TTITLE5=Mi Chiquita Quiere Bembe
TTITLE6=Cuanda Te Vea
TTITLE7=Cha Kee Ta
TTITLE8=Cute Chick
TTITLE9=Black Pearl
TTITLE10=Brazil
TTITLE11=Yucatan
TTITLE12=Miramar
TTITLE13=Acapulco
TTITLE14=Yours
TTITLE15=Port Au Pleasure
TTITLE16=Dancing Under Latin Skies
TTITLE17=Cuban Pete
EXTD=
EXTT0=
EXTT1=
EXTT2=
EXTT3=
EXTT4=
EXTT5=
EXTT6=
EXTT7=
EXTT8=
EXTT9=
EXTT10=
EXTT11=
EXTT12=
EXTT13=
EXTT14=
EXTT15=
EXTT16=
EXTT17=
PLAYORDER=
